<svg width="42" height="54" viewBox="0 0 42 54" fill="none" xmlns="http://www.w3.org/2000/svg">
<path fill-rule="evenodd" clip-rule="evenodd" d="M31.5261 1.10446C32.789 0.401783 34.3857 0.850105 35.0925 2.10582C39.3378 9.64909 41.5698 18.1998 41.5698 26.8995C41.5698 35.5991 39.3378 44.1499 35.0925 51.6931C34.3857 52.9489 32.789 53.3972 31.5261 52.6945C30.2632 51.9918 29.8123 50.4042 30.519 49.1485C34.3233 42.389 36.329 34.7153 36.329 26.8995C36.329 19.0837 34.3233 11.41 30.519 4.65044C29.8123 3.39473 30.2632 1.80714 31.5261 1.10446ZM21.4375 6.27916C22.7005 5.57648 24.2972 6.0248 25.0039 7.28051C28.3638 13.2505 30.1296 20.0165 30.1296 26.8995C30.1296 33.7824 28.3638 40.5485 25.0039 46.5184C24.2972 47.7742 22.7005 48.2225 21.4375 47.5198C20.1746 46.8171 19.7237 45.2295 20.4304 43.9738C23.3492 38.7876 24.8888 32.8986 24.8888 26.8995C24.8888 20.9004 23.3492 15.0113 20.4304 9.82514C19.7237 8.56942 20.1746 6.98184 21.4375 6.27916ZM11.8178 11.0248C13.0839 10.3278 14.6786 10.7832 15.3796 12.0421C17.867 16.5087 19.1726 21.5676 19.1726 26.7113C19.1726 31.855 17.867 36.9139 15.3796 41.3806C14.6786 42.6394 13.0839 43.0949 11.8178 42.3978C10.5517 41.7008 10.0937 40.1153 10.7947 38.8564C12.8473 35.1705 13.9318 30.9814 13.9318 26.7113C13.9318 22.4412 12.8473 18.2521 10.7947 14.5662C10.0937 13.3074 10.5517 11.7218 11.8178 11.0248ZM2.04397 16.2377C3.26268 15.4617 4.88335 15.8149 5.66384 17.0267C7.56782 19.9827 8.58084 23.4036 8.58084 26.8995C8.58084 30.3954 7.56782 33.8162 5.66384 36.7723C4.88335 37.984 3.26268 38.3373 2.04397 37.5612C0.825252 36.7852 0.469995 35.1738 1.25048 33.962C2.61842 31.8382 3.34003 29.3914 3.34003 26.8995C3.34003 24.4075 2.61842 21.9607 1.25048 19.8369C0.469995 18.6252 0.825252 17.0137 2.04397 16.2377Z" fill="#475569"/>
</svg>
